<svg width="465" height="554" viewBox="0 0 465 554" fill="none" xmlns="http://www.w3.org/2000/svg">
<g clip-path="url(#clip0)">
<rect width="465" height="554" fill="white"/>
<path d="M-34.3374 218.523L15.6894 231.928C47.1336 240.354 80.3271 222.824 89.5963 191.606C99.2209 159.226 80.2226 125.507 47.8112 116.822L-142.624 65.7951C-174.068 57.3697 -207.262 74.8988 -216.546 106.091C-226.191 138.465 -207.172 172.19 -174.761 180.875C-147.885 188.076 -95.5947 202.088 -45.1357 215.608" fill="white"/>
<path d="M-34.3374 218.523L15.6894 231.928C47.1336 240.354 80.3271 222.824 89.5963 191.606C99.2209 159.226 80.2226 125.507 47.8112 116.822L-142.624 65.7951C-174.068 57.3697 -207.262 74.8988 -216.546 106.091C-226.191 138.465 -207.172 172.19 -174.761 180.875C-147.885 188.076 -95.5946 202.088 -45.1357 215.608" stroke="black" stroke-miterlimit="10" stroke-linecap="round" stroke-linejoin="round"/>
<path d="M39.5445 190.149C34.5697 187.89 30.3218 184.811 27.6953 181.196L27.6748 181.19L27.6953 181.196C23.2992 175.871 22.6212 171.322 23.6303 167.556C26.6465 156.3 41.042 160.113 38.0148 171.411L37.9942 171.405C36.9851 175.171 34.1291 178.751 27.6542 181.185L27.6748 181.19L27.6542 181.185C18.4421 185.355 6.97973 182.284 1.08707 174.066L1.06651 174.06L1.08707 174.066C-3.30906 168.741 -3.98705 164.193 -2.97798 160.427C0.0382045 149.17 14.4338 152.983 11.4065 164.281L11.386 164.276C10.3769 168.041 7.52086 171.621 1.04594 174.055L1.06651 174.06L1.04594 174.055C-8.16616 178.225 -19.6285 175.154 -25.5211 166.936L-25.5417 166.931L-25.5211 166.936C-29.9173 161.612 -30.5953 157.063 -29.5862 153.297C-26.57 142.041 -12.1745 145.854 -15.2017 157.151L-15.2223 157.146C-16.2314 160.912 -19.0874 164.492 -25.5623 166.925L-25.5417 166.931L-25.5623 166.925C-34.7744 171.096 -46.2367 168.024 -52.1294 159.807L-52.15 159.801L-52.1294 159.807C-56.5255 154.482 -57.2035 149.933 -56.1945 146.167C-53.1783 134.911 -38.7827 138.724 -41.8099 150.022L-41.8305 150.016C-42.8396 153.782 -45.6956 157.362 -52.1706 159.796L-52.15 159.801L-52.1706 159.796C-53.1962 160.249 -54.2671 160.623 -55.4299 160.929C-62.8786 162.882 -71.0072 160.703 -76.5025 155.283C-77.3358 154.442 -78.0964 153.577 -78.7582 152.671L-78.7788 152.666L-78.7582 152.671C-83.1543 147.347 -83.8323 142.798 -82.8233 139.032C-79.8071 127.776 -65.4116 131.589 -68.4388 142.887L-68.4593 142.881C-69.4684 146.647 -72.3244 150.227 -78.7994 152.66L-78.7788 152.666L-78.7994 152.66C-88.0115 156.831 -99.4738 153.76 -105.366 145.542L-105.387 145.536L-105.366 145.542C-109.763 140.217 -110.441 135.668 -109.432 131.903C-106.415 120.646 -92.0198 124.459 -95.047 135.757L-95.0676 135.751C-96.0767 139.517 -98.9327 143.097 -105.408 145.531L-105.387 145.536L-105.408 145.531C-114.62 149.701 -126.082 146.63 -131.975 138.412L-131.995 138.407L-131.975 138.412C-136.371 133.088 -137.049 128.539 -136.04 124.773C-133.024 113.516 -118.628 117.33 -121.655 128.627L-121.676 128.622C-122.685 132.388 -125.541 135.967 -132.016 138.401L-131.995 138.407L-132.016 138.401C-141.228 142.572 -152.69 139.5 -158.583 131.282L-158.604 131.277L-158.583 131.282C-162.979 125.958 -163.657 121.409 -162.648 117.643C-159.632 106.387 -145.236 110.2 -148.263 121.498L-148.284 121.492C-149.293 125.258 -152.149 128.838 -158.624 131.271L-158.604 131.277L-158.624 131.271C-162.691 133.115 -167.925 133.632 -173.363 133.101" fill="white"/>
<path d="M39.5445 190.149C34.5697 187.89 30.3218 184.811 27.6953 181.196L27.6748 181.19L27.6953 181.196C23.2992 175.871 22.6212 171.322 23.6303 167.556C26.6465 156.3 41.042 160.113 38.0148 171.411L37.9942 171.405C36.9851 175.171 34.1291 178.751 27.6542 181.185L27.6748 181.19L27.6542 181.185C18.4421 185.355 6.97973 182.284 1.08707 174.066L1.06651 174.06L1.08707 174.066C-3.30906 168.741 -3.98704 164.193 -2.97797 160.427C0.038207 149.17 14.4337 152.983 11.4065 164.281L11.386 164.276C10.3769 168.041 7.52087 171.621 1.04594 174.055L1.06651 174.06L1.04594 174.055C-8.16616 178.225 -19.6285 175.154 -25.5212 166.936L-25.5417 166.931L-25.5212 166.936C-29.9173 161.612 -30.5953 157.063 -29.5862 153.297C-26.57 142.041 -12.1745 145.854 -15.2017 157.151L-15.2223 157.146C-16.2314 160.912 -19.0874 164.492 -25.5623 166.925L-25.5417 166.931L-25.5623 166.925C-34.7744 171.096 -46.2368 168.024 -52.1294 159.807L-52.15 159.801L-52.1294 159.807C-56.5255 154.482 -57.2035 149.933 -56.1945 146.167C-53.1783 134.911 -38.7827 138.724 -41.8099 150.022L-41.8305 150.016C-42.8396 153.782 -45.6956 157.362 -52.1706 159.796L-52.15 159.801L-52.1706 159.796C-53.1962 160.249 -54.2671 160.623 -55.4299 160.929C-62.8786 162.882 -71.0072 160.703 -76.5025 155.283C-77.3358 154.442 -78.0964 153.577 -78.7582 152.671L-78.7788 152.666L-78.7582 152.671C-83.1543 147.347 -83.8323 142.798 -82.8233 139.032C-79.8071 127.776 -65.4116 131.589 -68.4388 142.887L-68.4593 142.881C-69.4684 146.647 -72.3244 150.227 -78.7994 152.66L-78.7788 152.666L-78.7994 152.66C-88.0115 156.831 -99.4738 153.76 -105.366 145.542L-105.387 145.536L-105.366 145.542C-109.763 140.217 -110.441 135.668 -109.432 131.903C-106.415 120.646 -92.0198 124.459 -95.047 135.757L-95.0676 135.751C-96.0767 139.517 -98.9327 143.097 -105.408 145.531L-105.387 145.536L-105.408 145.531C-114.62 149.701 -126.082 146.63 -131.975 138.412L-131.995 138.407L-131.975 138.412C-136.371 133.088 -137.049 128.539 -136.04 124.773C-133.024 113.516 -118.628 117.33 -121.655 128.627L-121.676 128.622C-122.685 132.388 -125.541 135.967 -132.016 138.401L-131.995 138.407L-132.016 138.401C-141.228 142.572 -152.69 139.5 -158.583 131.282L-158.604 131.277L-158.583 131.282C-162.979 125.958 -163.657 121.409 -162.648 117.643C-159.632 106.387 -145.236 110.2 -148.263 121.498L-148.284 121.492C-149.293 125.258 -152.149 128.838 -158.624 131.271L-158.604 131.277L-158.624 131.271C-162.691 133.115 -167.925 133.632 -173.363 133.101" stroke="#12100E" stroke-miterlimit="10" stroke-linecap="round" stroke-linejoin="round"/>
<path d="M145.185 430.128C238.991 476.879 290.144 584.611 261.961 689.788L243.159 759.962L197.844 747.82L216.647 677.646C238.086 597.636 201.51 515.757 132.702 476.631L132.768 476.715C132.768 476.715 31.4968 854.993 32.3625 851.763L-10.256 840.343L71.4125 535.552L49.3521 529.641L-32.3164 834.432L-74.9348 823.012C-75.8391 826.387 25.5531 447.986 25.5531 447.986L25.5009 448.017C-53.6311 447.502 -126.261 500.098 -147.705 580.129L-166.508 650.302L-211.761 638.177L-192.958 568.003C-164.776 462.826 -66.6098 395.104 38.0038 401.52L38.056 401.49L38.1383 401.512L39.1308 397.807C48.2428 361.496 4.39138 316.155 -13.2632 259.394C-13.4054 258.937 -13.5421 258.459 -13.6843 258.002C-28.3908 209.089 16.5374 163.075 65.8851 176.298L233.828 221.298C283.134 234.51 299.089 296.792 261.943 331.79C261.585 332.135 261.208 332.475 260.83 332.815C217.186 373.129 156.539 390.47 146.248 426.487L145.256 430.192" fill="white"/>
<path d="M145.185 430.128C238.991 476.879 290.144 584.611 261.961 689.788L243.159 759.962L197.844 747.82L216.647 677.646C238.086 597.636 201.51 515.757 132.702 476.631L132.768 476.715C132.768 476.715 31.4968 854.993 32.3625 851.763L-10.256 840.343L71.4125 535.552L49.3521 529.641L-32.3163 834.432L-74.9348 823.012C-75.8391 826.387 25.5531 447.986 25.5531 447.986L25.5009 448.017C-53.6311 447.502 -126.261 500.098 -147.705 580.129L-166.508 650.302L-211.761 638.177L-192.958 568.003C-164.776 462.826 -66.6098 395.104 38.0038 401.52L38.056 401.49L38.1383 401.512L39.1308 397.807C48.2428 361.496 4.39138 316.155 -13.2632 259.394C-13.4054 258.937 -13.5421 258.459 -13.6843 258.002C-28.3908 209.089 16.5374 163.075 65.8851 176.298L233.828 221.298C283.134 234.51 299.089 296.792 261.943 331.79C261.585 332.135 261.208 332.475 260.83 332.815C217.186 373.129 156.539 390.47 146.248 426.487L145.256 430.192" stroke="#12100E" stroke-miterlimit="10" stroke-linecap="round" stroke-linejoin="round"/>
<path d="M210.815 185.687C213.363 176.179 208.409 165.941 199.087 162.782C188.856 159.313 178.002 165.249 175.256 175.497C177.898 165.64 172.037 155.49 162.18 152.848C152.323 150.207 142.173 156.067 139.532 165.925C142.283 155.656 135.846 145.108 125.251 142.997C115.599 141.073 106.189 147.462 103.642 156.97C101.089 166.497 106.738 176.282 116.266 178.835L188.95 198.311C198.478 200.864 208.262 195.215 210.815 185.687Z" fill="white" stroke="#12100E" stroke-miterlimit="10" stroke-linecap="round" stroke-linejoin="round"/>
<path d="M150.844 420.617C148.136 419.362 144.992 420.394 143.43 422.931C131.143 442.776 106.881 453.148 83.1745 446.796C59.4678 440.444 43.6369 419.351 42.9238 396.001C42.8395 393.023 40.6124 390.551 37.6608 390.29C34.1932 389.978 31.2572 392.786 31.3587 396.276C32.1893 424.621 51.3908 450.256 80.1804 457.97C108.97 465.684 138.416 453.084 153.308 428.953C155.141 425.981 154.002 422.081 150.844 420.617Z" fill="white" stroke="#12100B" stroke-miterlimit="10" stroke-linecap="round" stroke-linejoin="round"/>
<path d="M12.1275 494.964L120.598 524.029C122.82 524.624 125.09 523.314 125.686 521.091C126.281 518.869 124.971 516.599 122.748 516.003L14.278 486.939C12.0555 486.343 9.78541 487.654 9.18989 489.876C8.59438 492.099 9.90499 494.369 12.1275 494.964Z" fill="white" stroke="#12100E" stroke-miterlimit="10" stroke-linecap="round" stroke-linejoin="round"/>
<path d="M105.234 485.063C108.541 485.949 111.941 483.986 112.827 480.679C113.713 477.371 111.75 473.972 108.443 473.086C105.136 472.2 101.736 474.162 100.85 477.47C99.9638 480.777 101.927 484.176 105.234 485.063Z" fill="white" stroke="#12100E" stroke-miterlimit="10" stroke-linecap="round" stroke-linejoin="round"/>
<path d="M93.1295 291.85C103.938 294.746 115.048 288.332 117.944 277.524C120.84 266.715 114.426 255.606 103.617 252.71C92.8088 249.814 81.6991 256.228 78.803 267.036C75.9069 277.845 82.3211 288.954 93.1295 291.85Z" fill="white" stroke="#12100E" stroke-miterlimit="10" stroke-linecap="round" stroke-linejoin="round"/>
<path d="M95.605 282.61C101.31 284.139 107.175 280.753 108.704 275.048C110.232 269.342 106.846 263.478 101.141 261.949C95.4357 260.42 89.5712 263.806 88.0425 269.512C86.5137 275.217 89.8996 281.081 95.605 282.61Z" fill="#1D1D1B" stroke="#1D1D1B" stroke-miterlimit="10"/>
<path d="M152.479 307.752C163.287 310.649 174.397 304.234 177.293 293.426C180.189 282.618 173.775 271.508 162.966 268.612C152.158 265.716 141.048 272.13 138.152 282.938C135.256 293.747 141.67 304.856 152.479 307.752Z" fill="white" stroke="#12100E" stroke-miterlimit="10" stroke-linecap="round" stroke-linejoin="round"/>
<path d="M154.955 298.513C160.66 300.041 166.524 296.656 168.053 290.95C169.582 285.245 166.196 279.38 160.491 277.852C154.785 276.323 148.921 279.709 147.392 285.414C145.863 291.12 149.249 296.984 154.955 298.513Z" fill="#1D1D1B" stroke="#1D1D1B" stroke-miterlimit="10"/>
<path d="M141.242 360.962C136.385 359.66 132.688 355.516 132.307 350.517C131.587 340.774 124.823 332.102 114.863 329.433C104.903 326.765 94.71 330.893 89.215 338.971C86.3802 343.13 81.1111 344.85 76.2545 343.548C68.1877 341.387 64.5857 331.864 69.3368 324.998C80.5284 308.83 101.059 300.613 121.144 305.994C141.229 311.376 154.9 328.758 156.508 348.356C157.19 356.677 149.309 363.123 141.242 360.962Z" fill="white" stroke="#12100E" stroke-miterlimit="10" stroke-linecap="round" stroke-linejoin="round"/>
<path d="M131.558 346.149L155.012 339.862" stroke="#12100E" stroke-miterlimit="10" stroke-linecap="round" stroke-linejoin="round"/>
<path d="M125.684 335.311L142.62 318.367" stroke="#12100E" stroke-miterlimit="10" stroke-linecap="round" stroke-linejoin="round"/>
<path d="M102.641 329.446L96.3589 305.971" stroke="#12100E" stroke-miterlimit="10" stroke-linecap="round" stroke-linejoin="round"/>
<path d="M92.0476 335.562L74.8794 318.39" stroke="#12100E" stroke-miterlimit="10" stroke-linecap="round" stroke-linejoin="round"/>
<path d="M114.862 329.434L121.148 305.975" stroke="#12100E" stroke-miterlimit="10" stroke-linecap="round" stroke-linejoin="round"/>
<path d="M113.41 342.433C116.25 343.194 117.985 346.019 117.43 348.914C111.273 382.179 131.649 415.121 164.904 424.031L175.708 426.926C212.112 436.681 235.321 471.065 232.261 507.344C228.617 501.846 224.739 496.484 220.635 491.304C216.874 466.321 198.784 444.689 172.813 437.73L162.009 434.835C123.033 424.392 99.1623 385.727 106.465 346.703C107.065 343.556 110.282 341.595 113.41 342.433Z" fill="white" stroke="black" stroke-miterlimit="10" stroke-linecap="round" stroke-linejoin="round"/>
<path d="M-51.9658 535.621C-86.2293 526.44 -106.818 491.743 -98.8053 457.476C-86.1083 460.878 -75.4485 463.734 -68.1636 465.686C-36.2873 474.227 -3.53538 455.301 5.00035 423.445C13.5416 391.568 -5.38509 358.817 -37.2409 350.281L-228.87 298.934C-260.746 290.393 -293.492 309.299 -302.034 341.175C-310.575 373.052 -291.648 405.804 -259.792 414.339C-232.917 421.541 -160.047 441.066 -109.589 454.586C-119.201 494.822 -95.0714 535.651 -54.8606 546.425L-54.8401 546.431L-4.38115 559.951L-1.48628 549.147L-51.9658 535.621Z" fill="white" stroke="black" stroke-miterlimit="10" stroke-linecap="round" stroke-linejoin="round"/>
<path d="M205.087 555.997C203.355 558.842 201.424 561.522 199.293 564.039C183.418 582.79 157.608 591.777 132.317 585L132.296 584.994L41.0914 560.556L38.1965 571.36L129.401 595.798L129.422 595.804C158.129 603.496 187.408 593.828 206.089 573.249C207.558 571.636 208.935 569.953 210.262 568.213C208.683 564.063 206.948 560.003 205.087 555.997Z" fill="white" stroke="black" stroke-miterlimit="10" stroke-linecap="round" stroke-linejoin="round"/>
<path d="M-45.1406 215.629C-54.7527 255.864 -30.6235 296.693 9.58728 307.467L9.60785 307.473L54.6752 319.549C57.6591 320.348 60.7174 318.565 61.5115 315.602C62.311 312.618 60.5279 309.56 57.5645 308.766L12.4972 296.69L12.4766 296.684C-21.7663 287.509 -42.3553 252.812 -34.3423 218.544" fill="white"/>
<path d="M-45.1406 215.629C-54.7527 255.864 -30.6235 296.693 9.58728 307.467L9.60785 307.473L54.6752 319.549C57.6591 320.348 60.7174 318.565 61.5115 315.602C62.311 312.618 60.5279 309.56 57.5645 308.766L12.4972 296.69L12.4766 296.684C-21.7663 287.509 -42.3553 252.812 -34.3423 218.544" stroke="black" stroke-miterlimit="10" stroke-linecap="round" stroke-linejoin="round"/>
<path d="M397.14 191.633L334.148 174.754C311.532 168.694 287.641 181.305 280.964 203.756C274.04 227.044 287.714 251.331 311.029 257.578C328.933 262.375 311.77 257.777 337.946 264.79L324.58 314.673C314.386 348.356 279.207 368.11 244.964 358.935L244.943 358.93L173.124 339.686C170.14 338.886 167.081 340.669 166.287 343.632C165.488 346.616 167.25 349.669 170.234 350.469L242.054 369.713L242.074 369.718C282.285 380.493 323.596 357.198 335.39 317.547L348.756 267.665L374.026 274.436C396.642 280.496 420.534 267.885 427.211 245.435C434.155 222.151 420.476 197.886 397.14 191.633Z" fill="white" stroke="black" stroke-miterlimit="10" stroke-linecap="round" stroke-linejoin="round"/>
<path d="M100.943 213.549C98.9468 220.998 102.822 229.007 110.119 231.491C118.125 234.21 126.626 229.562 128.777 221.536C126.709 229.253 131.283 237.206 139.021 239.279C146.738 241.347 154.691 236.773 156.764 229.035C154.614 237.061 159.652 245.337 167.945 246.985C175.501 248.503 182.887 243.49 184.883 236.041" fill="white"/>
<path d="M100.943 213.549C98.9468 220.998 102.822 229.007 110.119 231.491C118.125 234.21 126.626 229.562 128.777 221.536C126.709 229.253 131.283 237.206 139.021 239.279C146.738 241.347 154.691 236.773 156.764 229.035C154.614 237.061 159.652 245.337 167.945 246.985C175.501 248.503 182.887 243.49 184.883 236.041" stroke="#12100E" stroke-miterlimit="10" stroke-linecap="round" stroke-linejoin="round"/>
<path d="M313.217 225.212C317.154 225.583 320.918 225.202 323.875 223.877L323.896 223.883L323.875 223.877C328.556 222.132 330.62 219.531 331.348 216.815L331.369 216.82C333.558 208.65 323.154 205.907 320.976 214.035C320.248 216.752 320.736 220.036 323.916 223.888L323.896 223.883L323.916 223.888C328.194 229.821 336.466 232.037 343.116 229.033L343.137 229.038L343.116 229.033C347.797 227.287 349.861 224.687 350.589 221.97L350.61 221.976C352.799 213.806 342.395 211.063 340.217 219.191C339.49 221.907 339.977 225.192 343.157 229.044L343.137 229.038L343.157 229.044C347.435 234.976 355.708 237.193 362.357 234.189L362.378 234.194L362.357 234.189C367.038 232.443 369.102 229.842 369.83 227.126L369.851 227.131C372.04 218.962 361.636 216.218 359.458 224.347C358.731 227.063 359.218 230.348 362.399 234.2L362.378 234.194L362.399 234.2C366.676 240.132 374.949 242.349 381.598 239.344L381.619 239.35L381.598 239.344C386.279 237.599 388.343 234.998 389.071 232.281L389.092 232.287C391.281 224.117 380.878 221.374 378.7 229.502C377.972 232.219 378.459 235.503 381.64 239.355L381.619 239.35L381.64 239.355C383.518 241.976 386.607 244.193 390.202 245.84" fill="white"/>
<path d="M313.217 225.212C317.154 225.583 320.918 225.202 323.875 223.877L323.896 223.883L323.875 223.877C328.556 222.132 330.62 219.531 331.348 216.815L331.369 216.82C333.558 208.65 323.154 205.907 320.976 214.035C320.248 216.752 320.736 220.036 323.916 223.888L323.896 223.883L323.916 223.888C328.194 229.821 336.466 232.037 343.116 229.033L343.137 229.038L343.116 229.033C347.797 227.287 349.861 224.687 350.589 221.97L350.61 221.976C352.799 213.806 342.395 211.063 340.217 219.191C339.49 221.907 339.977 225.192 343.157 229.044L343.137 229.038L343.157 229.044C347.435 234.976 355.708 237.193 362.357 234.189L362.378 234.194L362.357 234.189C367.038 232.443 369.102 229.842 369.83 227.126L369.851 227.131C372.04 218.962 361.636 216.218 359.458 224.347C358.731 227.063 359.218 230.348 362.399 234.2L362.378 234.194L362.399 234.2C366.676 240.132 374.949 242.349 381.598 239.344L381.619 239.35L381.598 239.344C386.279 237.599 388.343 234.998 389.071 232.281L389.092 232.287C391.281 224.117 380.878 221.374 378.7 229.502C377.972 232.219 378.459 235.503 381.64 239.355L381.619 239.35L381.64 239.355C383.518 241.976 386.607 244.193 390.202 245.84" stroke="#12100E" stroke-miterlimit="10" stroke-linecap="round" stroke-linejoin="round"/>
<path d="M224.648 112H229.592L230.648 105.232H236.288L235.232 112H240.152L242.864 94.84H237.944L236.912 101.392H231.248L232.304 94.84H227.36L224.648 112ZM243.468 112H255.708L256.308 108.208H248.964L249.468 105.04H255.012L255.54 101.584H250.02L250.476 98.632H257.412L258.012 94.84H246.18L243.468 112ZM258.211 112H269.635L270.234 108.184H263.755L265.867 94.84H260.923L258.211 112ZM272.015 112H283.439L284.039 108.184H277.559L279.671 94.84H274.727L272.015 112ZM303.741 102.184C303.741 97.288 300.069 94.6 295.317 94.6C289.557 94.6 285.501 98.824 285.501 104.776C285.501 109.576 289.245 112.288 293.805 112.288C299.709 112.288 303.741 108.16 303.741 102.184ZM298.629 102.352C298.629 105.496 297.117 108.424 294.141 108.424C291.813 108.424 290.613 106.864 290.613 104.584C290.613 101.392 292.173 98.416 295.173 98.44C297.573 98.464 298.629 100.192 298.629 102.352ZM306.197 106.36H309.773L312.245 94.84H307.397L306.197 106.36ZM307.469 112.264C308.885 112.264 310.013 111.184 310.013 109.864C310.013 108.544 308.909 107.488 307.517 107.488C306.101 107.488 305.021 108.568 305.021 109.912C305.021 111.232 306.053 112.264 307.469 112.264Z" fill="black"/>
<g clip-path="url(#clip1)">
<path d="M294.856 55.1983C292.025 55.1983 289.543 56.6754 288.149 58.9345C287.278 49.6809 280.92 41.5135 271.905 38.2986V34.128C271.905 32.6075 270.729 31.2607 269.205 31.2173C267.637 31.1738 266.33 32.4337 266.33 33.9977C266.33 32.4772 265.068 31.2173 263.543 31.2173C262.019 31.2173 260.756 32.4772 260.756 33.9977C260.756 32.4337 259.45 31.1738 257.882 31.2173C256.357 31.2607 255.182 32.6075 255.182 34.128V38.2552C245.949 41.47 239.852 49.9416 238.937 58.9779C237.413 56.5451 234.626 54.9811 231.49 55.2418C227.789 55.5459 224.74 58.5001 224.348 62.1928C223.826 66.9716 227.527 71.0119 232.231 71.0119C235.41 71.0119 238.197 69.1004 239.416 66.4068C239.416 66.4503 239.46 66.4937 239.46 66.5372C241.855 77.5285 251.654 85.7828 263.413 85.7828C270.381 85.7828 276.695 82.8721 281.138 78.2236H281.225C281.66 77.7023 282.139 77.1809 282.575 76.6162C285.231 73.3144 286.886 69.8389 287.714 66.32C289.064 69.3176 292.199 71.316 295.77 70.9685C299.429 70.6209 302.434 67.6667 302.826 64.0174C303.261 59.2386 299.559 55.1983 294.856 55.1983Z" fill="white" stroke="#12100E" stroke-width="0.4" stroke-miterlimit="10" stroke-linecap="round" stroke-linejoin="round"/>
<path d="M257.316 59.7164C259.601 59.7164 261.453 57.8686 261.453 55.5892C261.453 53.3098 259.601 51.462 257.316 51.462C255.031 51.462 253.179 53.3098 253.179 55.5892C253.179 57.8686 255.031 59.7164 257.316 59.7164Z" fill="white" stroke="#12100E" stroke-width="0.4" stroke-miterlimit="10" stroke-linecap="round" stroke-linejoin="round"/>
<path d="M257.316 57.7614C258.519 57.7614 259.494 56.7889 259.494 55.5892C259.494 54.3895 258.519 53.417 257.316 53.417C256.114 53.417 255.139 54.3895 255.139 55.5892C255.139 56.7889 256.114 57.7614 257.316 57.7614Z" fill="#1D1D1B" stroke="#1D1D1B" stroke-width="0.4" stroke-miterlimit="10"/>
<path d="M269.858 59.7164C272.143 59.7164 273.996 57.8686 273.996 55.5892C273.996 53.3098 272.143 51.462 269.858 51.462C267.574 51.462 265.721 53.3098 265.721 55.5892C265.721 57.8686 267.574 59.7164 269.858 59.7164Z" fill="white" stroke="#12100E" stroke-width="0.4" stroke-miterlimit="10" stroke-linecap="round" stroke-linejoin="round"/>
<path d="M269.859 57.7614C271.061 57.7614 272.036 56.7889 272.036 55.5892C272.036 54.3895 271.061 53.417 269.859 53.417C268.656 53.417 267.681 54.3895 267.681 55.5892C267.681 56.7889 268.656 57.7614 269.859 57.7614Z" fill="#1D1D1B" stroke="#1D1D1B" stroke-width="0.4" stroke-miterlimit="10"/>
<path d="M270.468 71.229C269.423 71.229 268.508 70.6208 268.16 69.6216C267.506 67.7535 265.721 66.4067 263.587 66.4067C261.453 66.4067 259.667 67.7535 259.014 69.6216C258.666 70.5773 257.708 71.229 256.706 71.229C255.007 71.229 253.788 69.5347 254.354 67.9272C255.704 64.1476 259.319 61.4541 263.587 61.4541C267.855 61.4541 271.469 64.1476 272.819 67.9272C273.386 69.5347 272.166 71.229 270.468 71.229Z" fill="white" stroke="#12100E" stroke-width="0.4" stroke-miterlimit="10" stroke-linecap="round" stroke-linejoin="round"/>
<path d="M267.768 68.7961L272.079 66.3198" stroke="#12100E" stroke-width="0.4" stroke-miterlimit="10" stroke-linecap="round" stroke-linejoin="round"/>
<path d="M266.026 66.9715L268.465 62.7574" stroke="#12100E" stroke-width="0.4" stroke-miterlimit="10" stroke-linecap="round" stroke-linejoin="round"/>
<path d="M263.587 66.4067V61.4541" stroke="#12100E" stroke-width="0.4" stroke-miterlimit="10" stroke-linecap="round" stroke-linejoin="round"/>
<path d="M261.191 67.0584L258.709 62.7574" stroke="#12100E" stroke-width="0.4" stroke-miterlimit="10" stroke-linecap="round" stroke-linejoin="round"/>
<path d="M259.406 68.7961L255.095 66.3198" stroke="#12100E" stroke-width="0.4" stroke-miterlimit="10" stroke-linecap="round" stroke-linejoin="round"/>
<path d="M231.099 62.0624L233.189 64.1042" stroke="#12100B" stroke-width="0.4" stroke-miterlimit="10" stroke-linecap="round" stroke-linejoin="round"/>
<path d="M233.189 62.0624L231.099 64.1042" stroke="#12100B" stroke-width="0.4" stroke-miterlimit="10" stroke-linecap="round" stroke-linejoin="round"/>
<path d="M293.898 62.0624L295.945 64.1042" stroke="#12100B" stroke-width="0.4" stroke-miterlimit="10" stroke-linecap="round" stroke-linejoin="round"/>
<path d="M295.945 62.0624L293.898 64.1042" stroke="#12100B" stroke-width="0.4" stroke-miterlimit="10" stroke-linecap="round" stroke-linejoin="round"/>
</g>
</g>
<defs>
<clipPath id="clip0">
<rect width="465" height="554" fill="white"/>
</clipPath>
<clipPath id="clip1">
<rect width="79" height="55" fill="white" transform="translate(224 31)"/>
</clipPath>
</defs>
</svg>
